<?xml version="1.0" encoding="utf-8"?>
<svg version="1.1" width="512" height="512" viewBox="-100 0 1255 1145" xmlns="http://www.w3.org/2000/svg">
  <style>
		/* dark mode detection */
    @media (prefers-color-scheme: dark) {
      g { filter: invert(100%); }
    }
	</style>
  <g transform="matrix(1 0 0 1 540 540)" id="e66fa2cc-3199-4b2d-99f0-1949e18321ca"/>
  <g transform="matrix(1 0 0 1 540 540)" id="5803e261-2960-4c61-b65f-52f9efb0bfa7">
    <rect style="stroke: none; stroke-width: 1; stroke-dasharray: none; stroke-linecap: butt; stroke-dashoffset: 0; stroke-linejoin: miter; stroke-miterlimit: 4; fill: rgb(255,255,255); fill-rule: nonzero; opacity: 1; visibility: hidden;" vector-effect="non-scaling-stroke" x="-540" y="-540" rx="0" ry="0" width="1080" height="1080"/>
  </g>
  <g transform="matrix(1 0 0 1 540 540)">
    <g style="" vector-effect="non-scaling-stroke">
      <g transform="matrix(0.13 0 0 -0.13 -2.3 -431.49)">
        <path style="stroke: none; stroke-width: 1; stroke-dasharray: none; stroke-linecap: butt; stroke-dashoffset: 0; stroke-linejoin: miter; stroke-miterlimit: 4; fill: rgb(0,0,0); fill-rule: nonzero; opacity: 1;" vector-effect="non-scaling-stroke" d="M -155.33 772.059 C -397.33 719.059 -611.33 525.059 -697.33 282.059 L -725.33 202.059 L -728.33 -1732.941 C -657.328 -2311.923 -556.554 -2048.447 -548.563 -2094.541 C -516.154 -2281.471 -245.155 -2313.462 -42.008 -2297.857 C 445.074 -2260.44 193.6 -2152.346 591.967 -2245.605 L 658.606 -2324.161 L 727.67 -1807.941 C 729.67 -132.941 727.67 133.059 714.67 202.059 C 664.67 474.059 409.67 726.059 135.67 776.059 C 56.67 790.059 -80.33 789.059 -155.33 772.059 Z" stroke-linecap="round"/>
      </g>
      <g transform="matrix(0.13 0 0 -0.13 -14.63 84.52)">
        <path style="stroke: none; stroke-width: 1; stroke-dasharray: none; stroke-linecap: butt; stroke-dashoffset: 0; stroke-linejoin: miter; stroke-miterlimit: 4; fill: rgb(0,0,0); fill-rule: nonzero; opacity: 1;" vector-effect="non-scaling-stroke" transform=" translate(-5039.37, -4372.15)" d="M 2664 8371 C 2561 8343 2480 8300 2353 8203 C 1417 7498 798 6391 675 5205 C 568 4175 820 3171 1406 2290 C 1901 1545 2603 988 3480 645 C 4443 268 5558 257 6523 616 C 7086 826 7572 1119 8009 1514 C 8477 1936 8861 2499 9118 3135 C 9423 3894 9505 4726 9354 5550 C 9236 6192 8970 6805 8577 7340 C 8345 7656 8004 7999 7690 8232 C 7536 8347 7411 8390 7234 8390 C 6998 8390 6816 8305 6673 8130 C 6505 7923 6461 7676 6546 7420 C 6596 7271 6667 7181 6854 7033 C 7005 6911 7221 6697 7328 6562 C 7612 6204 7815 5773 7904 5340 C 7945 5142 7960 4976 7960 4745 C 7960 4434 7927 4196 7845 3919 C 7742 3570 7545 3194 7314 2905 C 6899 2386 6276 2008 5619 1876 C 5245 1800 4835 1800 4461 1876 C 3889 1991 3331 2297 2931 2716 C 2628 3032 2390 3434 2252 3861 C 2010 4608 2091 5452 2470 6140 C 2537 6262 2670 6462 2756 6570 C 2855 6693 3086 6921 3231 7037 C 3300 7093 3378 7162 3404 7192 C 3577 7390 3624 7710 3515 7955 C 3434 8140 3275 8289 3091 8354 C 3015 8380 2990 8384 2870 8387 C 2761 8389 2721 8386 2664 8371 z" stroke-linecap="round"/>
      </g>
    </g>
  </g>
  <g transform="matrix(1.06 0 0 1.06 525.71 576.96)" id="4cca7f8e-2e7c-4afd-8260-4d5d44148543">
    <svg fill="#000000" x="-400" y="-400" width="800" height="800" viewBox="0 0 24 24" xmlns="http://www.w3.org/2000/svg">
      <path d="M10.742 2.04c-1.404.183-3.06.808-4.281 1.626-1.01.664-2.397 2.02-2.309 2.251.193.501 3.28 5.658 3.33 5.562.038-.067.095-.279.123-.49.25-1.385 1.425-2.704 2.897-3.253.568-.221.683-.221 5.495-.27l4.917-.047-.395-.646c-1.385-2.26-3.522-3.819-6.197-4.512-.731-.193-2.81-.318-3.58-.22z"/>
      <path d="M3.2 7.217c-.453.799-.983 2.415-1.107 3.358-.588 4.273 1.568 8.4 5.379 10.315.894.452 2.174.885 2.732.933l.356.029 1.674-2.838c.915-1.559 1.655-2.849 1.636-2.868-.02-.019-.231.039-.481.125-1.569.53-3.387.086-4.57-1.116-.424-.424-1.002-1.357-2.84-4.542C4.71 8.41 3.642 6.601 3.603 6.601c-.028 0-.211.279-.403.616z"/>
      <path d="M15.15 8.804c1.222 1.242 1.655 3.003 1.116 4.59-.086.26-1.212 2.271-2.501 4.485-1.29 2.203-2.349 4.031-2.349 4.06 0 .115 1.328.057 2.175-.087 4.32-.74 7.573-4.002 8.265-8.276.26-1.558.164-2.925-.307-4.503l-.25-.837h-6.707l.557.568z"/>
      <path d="M10.608 8.563C9.598 8.987 8.905 9.7 8.53 10.71c-.173.453-.202.713-.173 1.424.03.75.068.963.347 1.511.366.75.962 1.329 1.751 1.703.462.221.654.25 1.54.25.895 0 1.077-.029 1.559-.26.712-.326 1.462-1.077 1.79-1.79.23-.48.259-.663.259-1.558 0-.886-.029-1.078-.25-1.54-.375-.788-.952-1.386-1.703-1.75-.568-.28-.742-.318-1.56-.348-.788-.019-.99.01-1.48.212z"/>
    </svg>
  </g>
</svg>