<svg version="1.0" xmlns="http://www.w3.org/2000/svg" width="170.000000pt" height="170.000000pt" viewBox="0 0 170.000000 170.000000" preserveAspectRatio="xMidYMid meet">
  <style>
    /* dark mode detection */
    @media (prefers-color-scheme: dark) {
      g { filter: invert(100%); }
    }
  </style>

  <g transform="translate(0.000000,170.000000) scale(0.100000,-0.100000)" fill="#000000" stroke="none">
    <path d="M783 1680 c-57 -34 -63 -59 -63 -257 l0 -178 -69 -32 c-38 -18 -93 -54 -122 -81 l-52 -48 67 -117 c37 -64 71 -117 75 -117 5 0 16 18 26 41 23 50 82 102 134 117 24 8 119 12 255 12 152 0 216 3 216 11 0 26 -146 155 -207 184 l-63 29 0 181 c0 161 -2 183 -20 212 -37 61 -116 81 -177 43z"/>
    <path d="M405 1427 c-45 -21 -140 -112 -191 -183 -101 -141 -147 -285 -147 -459 0 -129 18 -214 68 -322 96 -207 254 -349 475 -425 90 -31 102 -32 240 -32 138 0 150 1 240 32 221 76 379 218 475 425 50 108 68 193 68 322 0 129 -18 214 -68 322 -63 137 -190 285 -274 320 -90 38 -193 -47 -175 -144 5 -27 25 -54 79 -107 129 -126 174 -228 175 -387 0 -154 -44 -263 -152 -372 -256 -259 -681 -184 -840 149 -40 83 -43 95 -46 191 -7 175 35 279 164 410 94 94 108 129 77 190 -33 67 -106 97 -168 70z"/>
    <path d="M425 990 c-21 -41 -45 -146 -45 -200 0 -112 54 -242 136 -324 59 -58 169 -120 234 -131 34 -6 36 -4 67 52 18 32 49 87 69 122 l37 64 -38 -6 c-52 -8 -122 8 -168 40 -36 25 -71 79 -218 335 -24 43 -47 78 -51 78 -4 0 -14 -13 -23 -30z"/>
    <path d="M808 960 c-133 -40 -177 -178 -90 -282 100 -118 302 -43 302 112 0 81 -51 148 -128 170 -42 11 -47 11 -84 0z"/>
    <path d="M1010 965 c0 -3 14 -30 31 -60 28 -50 31 -62 27 -123 -3 -64 -8 -74 -111 -253 -59 -102 -107 -190 -107 -196 0 -14 67 -7 135 14 145 44 261 160 306 304 23 75 25 195 4 267 l-16 52 -134 0 c-74 0 -135 -2 -135 -5z"/>
  </g>
</svg>
